<svg width="177" height="109" viewBox="0 0 177 109" fill="none" xmlns="http://www.w3.org/2000/svg">
<path d="M3.70892 30.1743L29.3229 24.7507L29.3224 50.488L-9.48475e-05 50.4884L3.70892 30.1743Z" fill="#7B4A84"/>
<path d="M69.717 14.2859L34.3775 30.1748V50.4888H69.717V14.2859ZM67.3087 18.0092V48.0805H36.7858V31.7317L67.3087 18.0092Z" fill="#E8E6E1"/>
<path d="M103.79 18.7231L73.5028 28.0793V50.4887H103.79V18.7231ZM101.381 21.9875V48.0804H75.9111V29.8555L101.381 21.9875Z" fill="#E8E6E1"/>
<path d="M107.578 0V50.489H137.875V4.68296L107.578 0ZM109.986 2.80929L135.467 6.74808V48.0807H109.986V2.80929Z" fill="#E8E6E1"/>
<path d="M141.66 9.35596V50.4887H174.121L177 18.9916L141.66 9.35596ZM144.069 12.5084L174.418 20.7846L171.922 48.0804H144.069V12.5084Z" fill="#E8E6E1"/>
<path d="M46.5426 62.2737L43.3106 78.879H41.2732L44.5051 62.2737H46.5426ZM43.9584 69.4577L43.5851 71.3229H32.0506L32.4226 69.4577H43.9584ZM34.8598 62.2737L31.6267 78.879H29.5893L32.82 62.2737H34.8598Z" fill="#E8E6E1"/>
<path d="M62.7739 62.2736L62.3765 64.1617H51.3392L50.9166 62.2736H62.7739ZM60.8593 69.4576L60.5125 71.2723H49.7979L50.1206 69.4576H60.8593ZM60.3885 76.9896L60.0393 78.8789H47.6846L48.8527 76.9896H60.3885ZM52.9552 62.2736L49.7233 78.8789H47.6846L50.9166 62.2736H52.9552Z" fill="#E8E6E1"/>
<path d="M78.4847 78.7298L78.3353 78.8791H76.4713L74.11 70.3525C73.9944 69.9382 73.886 69.524 73.7872 69.1098C73.6873 68.6956 73.5886 68.2729 73.4886 67.8418C73.2562 66.8135 72.9985 65.6382 72.718 64.3112H71.922L72.8673 62.2738H74.01L78.4847 78.7298ZM75.9499 72.6392L75.6766 74.3298H65.8073L66.1553 72.6392H75.9499ZM73.0912 62.2738L73.4633 64.3112H72.6421C72.311 64.9916 71.9726 65.6466 71.6246 66.2752C71.2766 66.9062 70.9202 67.5179 70.5553 68.1152C70.306 68.5462 69.8509 69.2916 69.1874 70.3525L63.694 78.8791H61.5554L61.4567 78.7298L71.9473 62.2738H73.0912Z" fill="#E8E6E1"/>
<path d="M88.5783 62.9945L85.4956 78.8785H83.4835L86.5649 62.9945H88.5783ZM95.1915 62.2732L94.8182 64.1626H79.9035L80.3009 62.2732H95.1915Z" fill="#E8E6E1"/>
<path d="M102.052 76.9892H112.816L112.468 78.8785H100.91L102.052 76.9892ZM104.091 62.2732H106.13L102.898 78.8785H100.859L104.091 62.2732Z" fill="#E8E6E1"/>
<path d="M130.315 62.2737L129.918 64.1619H118.88L118.457 62.2737H130.315ZM128.401 69.4577L128.053 71.2724H117.339L117.662 69.4577H128.401ZM127.929 76.9897L127.581 78.879H115.226L116.393 76.9897H127.929ZM120.497 62.2737L117.264 78.879H115.226L118.457 62.2737H120.497Z" fill="#E8E6E1"/>
<path d="M132.328 62.2737H134.167L136.406 71.3964C136.537 72.0274 136.703 72.8257 136.903 73.7951C137.102 74.7644 137.3 75.7555 137.499 76.7657H137.573C138.005 75.971 138.419 75.2425 138.816 74.579C139.215 73.8661 139.562 73.24 139.86 72.7017C140.159 72.1635 140.416 71.7203 140.631 71.3723L146.423 62.2737H148.536L148.61 62.4218L138.244 78.879H136.156L132.154 62.4218L132.328 62.2737Z" fill="#E8E6E1"/>
<path d="M163.03 62.2737L162.633 64.1619H151.595L151.173 62.2737H163.03ZM161.115 69.4577L160.769 71.2724H150.054L150.377 69.4577H161.115ZM160.644 76.9897L160.295 78.879H147.941L149.109 76.9897H160.644ZM153.211 62.2737L149.979 78.879H147.941L151.173 62.2737H153.211Z" fill="#E8E6E1"/>
<path d="M164.745 76.9892H175.508L175.16 78.8785H163.601L164.745 76.9892ZM166.782 62.2732H168.822L165.589 78.8785H163.551L166.782 62.2732Z" fill="#E8E6E1"/>
<path d="M149.669 101.973C149.629 102.404 149.607 102.844 149.607 103.292C149.607 104.65 149.922 105.619 150.552 106.2C151.182 106.779 152.077 107.069 153.237 107.069C154.181 107.069 154.994 106.883 155.673 106.51C156.353 106.137 156.92 105.541 157.376 104.72C157.831 103.9 158.201 102.794 158.481 101.401L158.656 100.457C158.756 99.9105 158.829 99.4047 158.88 98.9399C158.929 98.4775 158.955 98.0212 158.955 97.5732C158.955 96.1981 158.636 95.2167 157.997 94.6266C157.359 94.039 156.477 93.7452 155.351 93.7452C154.421 93.7452 153.618 93.9306 152.939 94.3051C152.258 94.6772 151.684 95.2901 151.211 96.1439C150.739 96.9976 150.362 98.162 150.08 99.6371L149.881 100.581C149.781 101.079 149.71 101.543 149.669 101.973ZM149.72 95.0866C150.474 93.9114 151.326 93.0781 152.28 92.5892C153.233 92.1003 154.257 91.8559 155.351 91.8559C156.923 91.8559 158.247 92.3074 159.316 93.2106C160.384 94.1149 160.919 95.5767 160.919 97.5985C160.919 98.2114 160.889 98.8075 160.832 99.3891C160.774 99.9683 160.679 100.581 160.545 101.228C160.197 103.017 159.68 104.489 158.992 105.64C158.304 106.792 157.471 107.633 156.493 108.164C155.514 108.694 154.431 108.959 153.237 108.959C151.579 108.959 150.233 108.49 149.197 107.554C148.162 106.618 147.643 105.197 147.643 103.292C147.643 102.694 147.678 102.119 147.743 101.563C147.809 101.007 147.901 100.416 148.017 99.7865C148.398 97.8309 148.965 96.2643 149.72 95.0866Z" fill="#E8E6E1"/>
<path d="M162.333 106.82H168.374L170.81 94.2431H170.735L165.738 95.5098L165.689 95.4352L166.013 93.6964L173.195 91.8805L173.295 91.9805L170.386 106.82H174.463L174.115 108.71H161.985L162.333 106.82Z" fill="#E8E6E1"/>
</svg>
